<svg width="100" height="100" viewBox="0 0 100 100" fill="none" xmlns="http://www.w3.org/2000/svg">
<path d="M55.4858 49.9529L98.9203 6.51843C99.6209 5.79304 100.009 4.82149 99.9998 3.81304C99.9911 2.80459 99.5866 1.83993 98.8735 1.12682C98.1604 0.413712 97.1957 0.00921666 96.1873 0.000453505C95.1788 -0.00830965 94.2073 0.379361 93.4819 1.07997L50.0474 44.5144L6.61295 1.07966C5.88755 0.379053 4.91601 -0.00861776 3.90756 0.000145395C2.89911 0.00890855 1.93445 0.413404 1.22134 1.12651C0.508235 1.83962 0.10374 2.80428 0.0949771 3.81273C0.0862139 4.82118 0.473884 5.79273 1.17449 6.51812L44.6089 49.9529L1.17418 93.3874C0.806837 93.7422 0.513826 94.1665 0.312253 94.6358C0.11068 95.105 0.00458297 95.6097 0.000145219 96.1204C-0.00429253 96.6311 0.0930208 97.1376 0.286409 97.6103C0.479797 98.0829 0.765385 98.5124 1.12651 98.8735C1.48764 99.2346 1.91706 99.5202 2.38974 99.7136C2.86242 99.907 3.36888 100.004 3.87957 99.9999C4.39026 99.9954 4.89495 99.8893 5.3642 99.6877C5.83344 99.4862 6.25784 99.1932 6.61264 98.8258L50.0474 55.3914L93.4818 98.8259C94.2072 99.5265 95.1787 99.9142 96.1872 99.9054C97.1956 99.8966 98.1603 99.4921 98.8734 98.779C99.5865 98.0659 99.991 97.1013 99.9998 96.0928C100.009 95.0844 99.6209 94.1128 98.9203 93.3874L55.4858 49.9529Z" fill="white"/>
</svg>
