<svg width="67" height="102" viewBox="0 0 67 102" fill="none" xmlns="http://www.w3.org/2000/svg">
<path d="M57.4742 51.0047L1.7466 6.37477C1.7466 6.37477 1.74659 6.37476 1.74658 6.37476C0.247138 5.174 0.072571 3.05133 1.37377 1.6462C2.65099 0.263971 4.87771 0.111563 6.35824 1.29997C6.3583 1.30002 6.35837 1.30007 6.35843 1.30012L65.2508 48.4669C65.251 48.4671 65.2513 48.4673 65.2515 48.4675L65.2519 48.4678L64.9393 48.8581L57.4742 51.0047ZM57.4742 51.0047L1.74702 95.6276L57.4742 51.0047ZM1.37399 100.357L1.37472 100.358L1.74661 95.6279C0.246646 96.8268 0.072894 98.952 1.37399 100.357Z" fill="white" stroke="white"/>
</svg>
