<svg width="65" height="100" viewBox="0 0 65 100" fill="none" xmlns="http://www.w3.org/2000/svg">
<path d="M58.0408 99.02L1.20094 52.366C0.820402 52.0562 0.518363 51.6877 0.312242 51.2816C0.106122 50.8755 0 50.4399 0 50C0 49.5601 0.106122 49.1245 0.312242 48.7184C0.518363 48.3123 0.820402 47.9438 1.20094 47.634L58.0408 0.980038C58.8053 0.35253 59.8422 0 60.9234 0C62.0046 0 63.0415 0.35253 63.806 0.980038C64.5705 1.60755 65 2.45863 65 3.34606C65 4.23349 64.5705 5.08457 63.806 5.71208L9.80812 50L63.806 94.2879C64.5705 94.9154 65 95.7665 65 96.6539C65 97.5414 64.5705 98.3925 63.806 99.02C63.0415 99.6475 62.0046 100 60.9234 100C59.8422 100 58.8053 99.6475 58.0408 99.02V99.02Z" fill="white"/>
</svg>
